<mxfile host="app.diagrams.net" modified="2024-05-18T11:14:28.777Z" agent="Mozilla/5.0 (Windows NT 10.0; Win64; x64) AppleWebKit/537.36 (KHTML, like Gecko) Chrome/124.0.0.0 Safari/537.36" etag="JM_toTFAPe-kXas1-tEV" version="24.4.4" type="device" pages="2">
  <diagram name="Страница — 1" id="hvI7OU9AS2uDLf-iS-ZL" />
  <diagram id="HoBQnDfGVoh8Cq66D2TY" name="Страница — 2">
    <mxGraphModel dx="845" dy="1515" grid="1" gridSize="10" guides="1" tooltips="1" connect="1" arrows="1" fold="1" page="0" pageScale="1" pageWidth="827" pageHeight="1169" math="0" shadow="0">
      <root>
        <mxCell id="0" />
        <mxCell id="1" parent="0" />
        <mxCell id="MXfj8reR2WzuoiM-RJ5Z-17" value="" style="edgeStyle=orthogonalEdgeStyle;rounded=0;orthogonalLoop=1;jettySize=auto;html=1;" edge="1" parent="1" source="MXfj8reR2WzuoiM-RJ5Z-2" target="MXfj8reR2WzuoiM-RJ5Z-16">
          <mxGeometry relative="1" as="geometry" />
        </mxCell>
        <mxCell id="MXfj8reR2WzuoiM-RJ5Z-2" value="START" style="ellipse;whiteSpace=wrap;html=1;" vertex="1" parent="1">
          <mxGeometry x="360" y="-640" width="160" height="80" as="geometry" />
        </mxCell>
        <mxCell id="MXfj8reR2WzuoiM-RJ5Z-15" value="" style="edgeStyle=orthogonalEdgeStyle;rounded=0;orthogonalLoop=1;jettySize=auto;html=1;" edge="1" parent="1" source="MXfj8reR2WzuoiM-RJ5Z-3" target="MXfj8reR2WzuoiM-RJ5Z-14">
          <mxGeometry relative="1" as="geometry" />
        </mxCell>
        <mxCell id="MXfj8reR2WzuoiM-RJ5Z-3" value="num 1 + num 2 + num 3" style="rounded=0;whiteSpace=wrap;html=1;" vertex="1" parent="1">
          <mxGeometry x="360" y="-320" width="160" height="60" as="geometry" />
        </mxCell>
        <mxCell id="MXfj8reR2WzuoiM-RJ5Z-21" value="" style="edgeStyle=orthogonalEdgeStyle;rounded=0;orthogonalLoop=1;jettySize=auto;html=1;" edge="1" parent="1" source="MXfj8reR2WzuoiM-RJ5Z-14" target="MXfj8reR2WzuoiM-RJ5Z-19">
          <mxGeometry relative="1" as="geometry" />
        </mxCell>
        <mxCell id="MXfj8reR2WzuoiM-RJ5Z-14" value="sum" style="shape=document;whiteSpace=wrap;html=1;boundedLbl=1;" vertex="1" parent="1">
          <mxGeometry x="360" y="-190" width="160" height="80" as="geometry" />
        </mxCell>
        <mxCell id="MXfj8reR2WzuoiM-RJ5Z-23" value="" style="edgeStyle=orthogonalEdgeStyle;rounded=0;orthogonalLoop=1;jettySize=auto;html=1;" edge="1" parent="1" source="MXfj8reR2WzuoiM-RJ5Z-16" target="MXfj8reR2WzuoiM-RJ5Z-22">
          <mxGeometry relative="1" as="geometry" />
        </mxCell>
        <mxCell id="MXfj8reR2WzuoiM-RJ5Z-16" value="&lt;span style=&quot;background-color: initial;&quot;&gt;num 1&lt;/span&gt;&lt;div&gt;&lt;span style=&quot;background-color: initial;&quot;&gt;num 2&lt;/span&gt;&lt;/div&gt;&lt;div&gt;&lt;span style=&quot;background-color: initial;&quot;&gt;num 3&lt;/span&gt;&lt;/div&gt;" style="shape=parallelogram;perimeter=parallelogramPerimeter;whiteSpace=wrap;html=1;fixedSize=1;" vertex="1" parent="1">
          <mxGeometry x="357.5" y="-530" width="162.5" height="50" as="geometry" />
        </mxCell>
        <mxCell id="MXfj8reR2WzuoiM-RJ5Z-19" value="END" style="ellipse;whiteSpace=wrap;html=1;" vertex="1" parent="1">
          <mxGeometry x="365" y="-80" width="150" height="60" as="geometry" />
        </mxCell>
        <mxCell id="MXfj8reR2WzuoiM-RJ5Z-24" value="" style="edgeStyle=orthogonalEdgeStyle;rounded=0;orthogonalLoop=1;jettySize=auto;html=1;" edge="1" parent="1" source="MXfj8reR2WzuoiM-RJ5Z-22" target="MXfj8reR2WzuoiM-RJ5Z-3">
          <mxGeometry relative="1" as="geometry" />
        </mxCell>
        <mxCell id="MXfj8reR2WzuoiM-RJ5Z-22" value="sum" style="rounded=0;whiteSpace=wrap;html=1;" vertex="1" parent="1">
          <mxGeometry x="360" y="-420" width="160" height="50" as="geometry" />
        </mxCell>
      </root>
    </mxGraphModel>
  </diagram>
</mxfile>
